<svg xmlns="http://www.w3.org/2000/svg" viewBox="0 0 600 400">
  <!-- Definitions -->
  <defs>
    <!-- Gradients -->
    <linearGradient id="bgGradient" x1="0%" y1="0%" x2="100%" y2="100%">
      <stop offset="0%" style="stop-color:#1A237E;stop-opacity:0.05"/>
      <stop offset="100%" style="stop-color:#311B92;stop-opacity:0.05"/>
    </linearGradient>
    
    <linearGradient id="neuralGradient" x1="0%" y1="0%" x2="100%" y2="0%">
      <stop offset="0%" style="stop-color:#3949AB"/>
      <stop offset="100%" style="stop-color:#5E35B1"/>
    </linearGradient>

    <!-- Circuit Pattern -->
    <pattern id="circuitPattern" x="0" y="0" width="50" height="50" patternUnits="userSpaceOnUse">
      <path d="M10 25 H40 M25 10 V40" stroke="#3949AB" stroke-width="1" opacity="0.1"/>
    </pattern>
  </defs>

  <!-- Background -->
  <rect x="0" y="0" width="600" height="400" fill="url(#bgGradient)"/>
  <rect x="0" y="0" width="600" height="400" fill="url(#circuitPattern)"/>

  <!-- Central Brain/Network Structure -->
  <g transform="translate(250,150)">
    <!-- Neural Network Nodes -->
    <circle cx="0" cy="0" r="15" fill="#5E35B1"/>
    <circle cx="50" cy="-30" r="12" fill="#3949AB"/>
    <circle cx="50" cy="30" r="12" fill="#3949AB"/>
    <circle cx="100" cy="-45" r="10" fill="#5E35B1"/>
    <circle cx="100" cy="0" r="10" fill="#5E35B1"/>
    <circle cx="100" cy="45" r="10" fill="#5E35B1"/>
    
    <!-- Neural Connections -->
    <path d="M15 0 L38 -25" stroke="url(#neuralGradient)" stroke-width="2"/>
    <path d="M15 0 L38 25" stroke="url(#neuralGradient)" stroke-width="2"/>
    <path d="M62 -30 L90 -45" stroke="url(#neuralGradient)" stroke-width="2"/>
    <path d="M62 -30 L90 0" stroke="url(#neuralGradient)" stroke-width="2"/>
    <path d="M62 30 L90 0" stroke="url(#neuralGradient)" stroke-width="2"/>
    <path d="M62 30 L90 45" stroke="url(#neuralGradient)" stroke-width="2"/>
  </g>

  <!-- Data Visualization Elements -->
  <!-- Bar Chart -->
  <g transform="translate(100,250)">
    <rect x="0" y="0" width="15" height="40" fill="#3949AB" opacity="0.8"/>
    <rect x="20" y="-20" width="15" height="60" fill="#3949AB" opacity="0.8"/>
    <rect x="40" y="-10" width="15" height="50" fill="#3949AB" opacity="0.8"/>
  </g>

  <!-- Line Graph -->
  <path d="M400 250 C420 230, 440 270, 460 240 C480 210, 500 260, 520 230" 
        fill="none" 
        stroke="#5E35B1" 
        stroke-width="3"
        stroke-linecap="round"/>

  <!-- Predictive Trend Line -->
  <path d="M520 230 Q540 210, 560 200" 
        fill="none" 
        stroke="#5E35B1" 
        stroke-width="2"
        stroke-dasharray="5,5"/>

  <!-- Data Points -->
  <circle cx="400" cy="250" r="4" fill="#3949AB"/>
  <circle cx="460" cy="240" r="4" fill="#3949AB"/>
  <circle cx="520" cy="230" r="4" fill="#3949AB"/>

  <!-- Abstract Circuit Elements -->
  <path d="M50 50 L100 50 L100 100 L150 100" 
        fill="none" 
        stroke="#3949AB" 
        stroke-width="2"
        opacity="0.2"/>
  <path d="M450 350 L500 350 L500 300 L550 300" 
        fill="none" 
        stroke="#5E35B1" 
        stroke-width="2"
        opacity="0.2"/>

  <!-- Floating Analytics Icons -->
  <g transform="translate(450,100)">
    <circle cx="0" cy="0" r="20" fill="none" stroke="#3949AB" stroke-width="2"/>
    <path d="M-10 0 L0 10 L10 -10" 
          fill="none" 
          stroke="#3949AB" 
          stroke-width="2"
          stroke-linecap="round"
          stroke-linejoin="round"/>
  </g>
</svg>
